<?xml version="1.0" standalone="no"?>
<!DOCTYPE svg PUBLIC "-//W3C//DTD SVG 20010904//EN"
 "http://www.w3.org/TR/2001/REC-SVG-20010904/DTD/svg10.dtd">
<svg version="1.0" xmlns="http://www.w3.org/2000/svg"
 width="300.000000pt" height="300.000000pt" viewBox="0 0 300.000000 300.000000"
 preserveAspectRatio="xMidYMid meet">
<metadata>
Created by potrace 1.14, written by Peter Selinger 2001-2017
</metadata>
<g transform="translate(0.000000,300.000000) scale(0.100000,-0.100000)"
fill="#000000" stroke="none">
<path d="M1509 2176 c-2 -2 -23 -6 -47 -10 -125 -17 -276 -96 -387 -201 -132
-126 -215 -335 -219 -547 0 -29 -3 -35 -13 -26 -19 15 -17 -23 3 -70 9 -20 18
-50 19 -67 3 -35 29 -124 45 -157 23 -45 95 -145 111 -154 8 -5 37 -20 62 -33
42 -22 47 -29 49 -60 1 -20 3 -49 4 -66 4 -72 6 -111 4 -120 -3 -24 1 -243 6
-275 13 -79 84 -120 210 -120 71 0 73 -1 65 -22 -5 -15 -28 -29 -72 -45 -91
-32 -139 -94 -139 -180 l0 -23 414 0 c244 0 417 4 421 9 8 15 -33 116 -59 144
-33 35 -72 53 -146 68 -76 15 -90 23 -90 54 0 13 -5 25 -10 27 -6 2 -12 57
-13 138 -1 74 -5 140 -8 145 -3 6 -7 28 -8 50 -5 73 -8 97 -27 185 -14 65 -5
79 82 120 35 17 69 36 76 43 7 7 31 25 52 41 74 55 163 163 171 206 1 3 5 28
10 55 4 28 10 57 12 65 12 43 10 293 -3 365 -16 97 -34 167 -45 180 -5 5 -9
15 -9 23 0 8 -13 34 -30 59 -16 24 -30 46 -30 49 0 9 -54 56 -90 78 -35 22
-131 55 -179 62 -43 6 -188 14 -192 10z"/>
</g>
</svg>
